<?xml version="1.0" standalone="no"?>
<!DOCTYPE svg PUBLIC "-//W3C//DTD SVG 1.1//EN" "http://www.w3.org/Graphics/SVG/1.1/DTD/svg11.dtd" >
<svg xmlns="http://www.w3.org/2000/svg">
<metadata>Generated by IcoMoon</metadata>
<defs>
<font id="icomoon" horiz-adv-x="1024">
<font-face units-per-em="1024" ascent="960" descent="-64" />
<missing-glyph horiz-adv-x="1024" />
<glyph unicode="&#x20;" horiz-adv-x="512" d="" />
<glyph unicode="&#xe900;" glyph-name="settings" d="M528.167 191.955h-32.152c-26.011 0-47.145 21.134-47.145 47.145v10.838c-11.019 3.613-21.856 7.948-32.152 13.367l-7.767-7.767c-18.605-18.605-48.59-18.063-66.653 0l-22.76 22.76c-18.063 18.063-18.605 48.048 0 66.653l7.767 7.767c-5.419 10.296-9.754 21.134-13.367 32.152h-10.838c-26.011 0-47.145 21.134-47.145 47.145v32.152c0 26.011 21.134 47.145 47.145 47.145h10.838c3.613 11.019 7.948 21.856 13.367 32.152l-7.767 7.767c-18.605 18.605-18.063 48.59 0 66.653l22.76 22.76c18.244 18.244 48.048 18.605 66.653 0l7.767-7.767c10.296 5.419 21.134 9.754 32.152 13.367v10.838c0 26.011 21.134 47.145 47.145 47.145h32.152c26.011 0 47.145-21.134 47.145-47.145v-10.838c11.019-3.613 21.856-7.948 32.152-13.367l7.767 7.767c18.605 18.605 48.59 18.063 66.653 0l22.579-22.94c18.063-18.063 18.605-48.048 0-66.653l-7.767-7.767c5.419-10.296 9.754-21.134 13.367-32.152h10.838c26.011 0 47.145-21.134 47.145-47.145v-32.152c0-26.011-21.134-47.145-47.145-47.145h-10.838c-3.613-11.019-7.948-21.856-13.367-32.152l7.767-7.587c18.605-18.605 18.063-48.59 0-66.653l-22.76-22.76c-18.244-18.244-48.048-18.605-66.653 0l-7.767 7.767c-10.296-5.419-21.134-9.754-32.152-13.367v-10.838c0.181-26.011-21.134-47.145-46.964-47.145zM421.775 294.734c14.27-8.49 29.804-14.812 45.88-18.966 6.683-1.626 11.199-7.767 11.199-14.451v-22.218c0-9.393 7.767-17.16 17.16-17.16h32.152c9.393 0 17.16 7.767 17.16 17.16v22.218c0 6.864 4.696 12.825 11.199 14.451 16.076 4.155 31.43 10.477 45.88 18.966 5.961 3.432 13.367 2.529 18.244-2.348l15.715-15.715c6.683-6.683 17.702-6.683 24.205 0l22.76 22.76c6.503 6.503 6.864 17.521 0 24.205l-15.715 15.715c-4.877 4.877-5.78 12.283-2.348 18.244 8.49 14.27 14.812 29.804 18.966 45.88 1.626 6.683 7.767 11.199 14.451 11.199h22.218c9.393 0 17.16 7.767 17.16 17.16v32.152c0 9.393-7.767 17.16-17.16 17.16h-22.218c-6.864 0-12.825 4.696-14.451 11.199-4.155 16.076-10.477 31.43-18.966 45.88-3.432 5.961-2.529 13.367 2.348 18.244l15.715 15.715c6.864 6.864 6.683 17.702 0 24.205l-22.76 22.76c-6.503 6.683-17.521 6.864-24.205 0l-15.715-15.715c-4.877-4.877-12.283-5.78-18.244-2.348-14.27 8.49-29.804 14.812-45.88 18.966-6.683 1.626-11.199 7.767-11.199 14.451v22.218c0 9.393-7.767 17.16-17.16 17.16h-32.152c-9.393 0-17.16-7.767-17.16-17.16v-22.218c0-6.864-4.696-12.825-11.199-14.451-16.076-4.155-31.43-10.477-45.88-18.966-5.961-3.432-13.367-2.529-18.244 2.348l-15.715 15.715c-6.683 6.683-17.702 6.683-24.205 0l-22.76-22.76c-6.503-6.503-6.864-17.521 0-24.205l15.715-15.715c4.877-4.877 5.78-12.283 2.348-18.244-8.49-14.27-14.812-29.804-18.966-45.88-1.626-6.683-7.767-11.199-14.451-11.199h-22.218c-9.393 0-17.16-7.767-17.16-17.16v-32.152c0-9.393 7.767-17.16 17.16-17.16h22.218c6.864 0 12.825-4.696 14.451-11.199 4.155-16.076 10.477-31.43 18.966-45.88 3.432-5.961 2.529-13.367-2.348-18.244l-15.715-15.715c-6.864-6.864-6.683-17.702 0-24.205l22.76-22.76c6.503-6.683 17.521-6.864 24.205 0l15.715 15.715c3.613 3.613 11.019 6.683 18.244 2.348v0zM512.090 336.641c-61.415 0-111.45 50.035-111.45 111.45s50.035 111.45 111.45 111.45 111.45-50.035 111.45-111.45-50.035-111.45-111.45-111.45zM512.090 529.374c-44.977 0-81.465-36.488-81.465-81.465s36.488-81.465 81.465-81.465 81.465 36.488 81.465 81.465-36.668 81.465-81.465 81.465v0z" />
<glyph unicode="&#xe901;" glyph-name="awd" d="M808.507 485.3l-68.459 210.797c-1.987 6.141-8.49 9.393-14.631 7.406l-502.517-163.291c-6.141-1.987-9.393-8.49-7.406-14.631l32.333-99.709c0-0.181 0-0.361 0-0.542v-221.635c0-6.322 5.238-11.56 11.56-11.56h528.347c6.322 0 11.56 5.238 11.56 11.56v221.454c0 6.322-5.238 11.56-11.56 11.56h-90.858l104.224 33.778c6.141 2.168 9.393 8.67 7.406 14.812zM776.174 413.59v-198.333h-505.046v198.333h64.305v-129.332c0-6.322 5.238-11.56 11.56-11.56s11.56 5.238 11.56 11.56v129.332h417.62zM621.914 436.711h-353.135l-27.637 84.897 61.234 19.869 23.482-71.169c1.626-4.877 6.141-7.948 11.019-7.948 1.264 0 2.348 0.181 3.613 0.542 6.141 1.987 9.393 8.49 7.406 14.631l-23.301 70.988 397.209 129.152 61.234-188.579-161.123-52.383zM703.921 626.916c-1.987 6.141-8.49 9.393-14.631 7.406l-302.558-98.264c-6.141-1.987-9.393-8.49-7.406-14.631 1.626-4.877 6.141-7.948 11.019-7.948 1.264 0 2.348 0.181 3.613 0.542l302.558 98.264c6.141 1.987 9.393 8.49 7.406 14.631zM652.983 551.592l57.26 18.605c6.141 1.987 9.393 8.49 7.406 14.631s-8.49 9.393-14.631 7.406l-57.26-18.605c-6.141-1.987-9.393-8.49-7.406-14.631 1.626-4.877 6.141-7.948 11.019-7.948 1.084-0.181 2.348 0 3.613 0.542zM701.392 498.125c1.626-4.877 6.141-7.948 11.019-7.948 1.264 0 2.348 0.181 3.613 0.542l18.063 5.961c6.141 1.987 9.393 8.49 7.406 14.631s-8.49 9.393-14.631 7.406l-18.063-5.961c-6.141-1.987-9.393-8.49-7.406-14.631zM668.337 499.751l-18.063-5.961c-6.141-1.987-9.393-8.49-7.406-14.631 1.626-4.877 6.141-7.948 11.019-7.948 1.264 0 2.348 0.181 3.613 0.542l18.063 5.961c6.141 1.987 9.393 8.49 7.406 14.631-1.987 5.961-8.49 9.393-14.631 7.406zM506.31 528.291l-105.85-34.501c-6.141-1.987-9.393-8.49-7.406-14.631 1.626-4.877 6.141-7.948 11.019-7.948 1.264 0 2.348 0.181 3.613 0.542l105.85 34.501c6.141 1.987 9.393 8.49 7.406 14.631s-8.49 9.393-14.631 7.406zM346.993 257.163c-6.322 0-11.56-5.238-11.56-11.56v-4.516c0-6.322 5.238-11.56 11.56-11.56s11.56 5.238 11.56 11.56v4.516c0 6.503-5.238 11.56-11.56 11.56zM402.447 370.599c0-6.322 5.238-11.56 11.56-11.56h318.092c6.322 0 11.56 5.238 11.56 11.56s-5.238 11.56-11.56 11.56h-318.092c-6.503 0-11.56-5.058-11.56-11.56zM732.099 337.905h-60.15c-6.322 0-11.56-5.238-11.56-11.56s5.238-11.56 11.56-11.56h60.15c6.322 0 11.56 5.238 11.56 11.56 0.181 6.322-5.058 11.56-11.56 11.56zM732.099 260.595h-19.147c-6.322 0-11.56-5.238-11.56-11.56s5.238-11.56 11.56-11.56h19.147c6.322 0 11.56 5.238 11.56 11.56 0.181 6.503-5.058 11.56-11.56 11.56zM670.504 260.595h-19.147c-6.322 0-11.56-5.238-11.56-11.56s5.238-11.56 11.56-11.56h19.147c6.322 0 11.56 5.238 11.56 11.56 0 6.503-5.058 11.56-11.56 11.56zM525.276 337.905h-111.45c-6.322 0-11.56-5.238-11.56-11.56s5.238-11.56 11.56-11.56h111.45c6.322 0 11.56 5.238 11.56 11.56 0.181 6.322-5.058 11.56-11.56 11.56z" />
<glyph unicode="&#xe902;" glyph-name="bank" d="M817.538 191.955h-611.076c-36.849 0-66.834 29.985-66.834 66.834v378.242c0 36.849 29.985 66.834 66.834 66.834h610.896c36.849 0 66.834-29.985 66.834-66.834v-378.242c0.181-36.849-29.804-66.834-66.653-66.834zM206.462 657.442c-11.199 0-20.411-9.212-20.411-20.411v-378.242c0-11.199 9.212-20.411 20.411-20.411h610.896c11.199 0 20.411 9.212 20.411 20.411v378.242c0 11.199-9.212 20.411-20.411 20.411h-610.896zM671.588 381.437c-5.058 0-10.115 1.626-14.451 5.058-10.115 7.948-11.741 22.579-3.793 32.694 6.503 8.309 9.935 18.244 9.935 28.72 0 10.657-3.432 20.592-9.935 28.72-7.948 10.115-6.141 24.747 3.793 32.694 10.115 7.948 24.747 6.141 32.694-3.793 12.825-16.257 20.050-36.849 20.050-57.621s-7.045-41.365-20.050-57.621c-4.516-5.78-11.38-8.851-18.244-8.851v0zM729.39 323.816c-5.6 0-11.019 1.987-15.534 5.961-9.573 8.67-10.296 23.301-1.806 32.875 21.134 23.482 32.694 53.828 32.694 85.439s-11.56 61.957-32.694 85.439c-8.67 9.573-7.767 24.205 1.806 32.875s24.205 7.767 32.875-1.806c28.72-31.972 44.616-73.517 44.616-116.507s-15.896-84.536-44.616-116.507c-4.696-5.238-11.019-7.767-17.341-7.767v0zM320.079 448.090h-34.862c-28.901 0-52.383 23.482-52.383 52.383v34.862c0 28.901 23.482 52.383 52.383 52.383h34.862c28.901 0 52.383-23.482 52.383-52.383v-34.862c-0.181-28.901-23.663-52.383-52.383-52.383zM285.037 541.116c-3.251 0-5.78-2.529-5.78-5.78v-34.862c0-3.251 2.529-5.78 5.78-5.78h34.862c3.251 0 5.78 2.529 5.78 5.78v34.862c0 3.251-2.529 5.78-5.78 5.78h-34.862z" />
<glyph unicode="&#xe903;" glyph-name="billing" d="M451.398 496.861h116.869c10.477 0 18.966 8.49 18.966 18.966s-8.49 18.966-18.966 18.966h-116.869c-10.477 0-18.966-8.49-18.966-18.966s8.49-18.966 18.966-18.966zM656.596 446.465h-205.197c-10.477 0-18.966-8.49-18.966-18.966s8.49-18.966 18.966-18.966h205.197c10.477 0 18.966 8.49 18.966 18.966s-8.49 18.966-18.966 18.966zM758.472 701.697c-6.864 3.071-14.812 1.806-20.411-3.071l-53.106-46.964-53.106 47.506c-7.225 6.503-18.063 6.503-25.288 0l-53.106-47.506-53.106 47.506c-7.225 6.503-18.063 6.503-25.288 0l-53.106-47.506-53.106 46.964c-5.6 4.877-13.547 6.141-20.411 3.071s-11.199-9.754-11.199-17.341v-337.058h-64.485c-10.477 0-18.966-8.49-18.966-18.966v-46.061c0-48.771 38.836-88.509 87.064-90.135v0l333.265 0.181c1.445 0 2.89-0.181 4.335-0.181 49.854 0 90.316 40.461 90.316 90.316v401.905c0.903 7.587-3.613 14.27-10.296 17.341zM292.262 282.271v27.095h296.778v-27.095c0-19.508 6.141-37.571 16.799-52.383h-261.193c-28.901 0-52.383 23.482-52.383 52.383zM731.738 282.271c0-28.901-23.482-52.383-52.383-52.383s-52.383 23.482-52.383 52.383v46.061c0 10.477-8.49 18.966-18.966 18.966h-232.292v295.152l34.139-30.165c7.225-6.322 18.063-6.322 25.108 0l53.106 47.506 53.106-47.506c7.225-6.503 18.063-6.503 25.288 0l53.106 47.506 53.106-47.506c7.225-6.322 18.063-6.503 25.108 0l34.139 30.165v-360.179z" />
<glyph unicode="&#xe904;" glyph-name="blog" d="M747.995 704.045h-471.99c-11.019 0-20.050-9.032-20.050-20.050v-471.99c0-11.019 9.032-20.050 20.050-20.050h471.99c11.019 0 20.050 9.032 20.050 20.050 0 21.495 0 464.042 0 471.99 0 11.019-9.032 20.050-20.050 20.050zM728.126 231.874h-432.071v346.090h432.071v-346.090zM728.126 618.065h-432.071v46.061h432.071v-46.061zM348.98 305.030h167.265c11.019 0 20.050 9.032 20.050 20.050v159.859c0 11.019-9.032 20.050-20.050 20.050h-167.265c-11.019 0-20.050-9.032-20.050-20.050v-160.040c0-11.019 9.032-19.869 20.050-19.869zM369.030 464.889h127.165v-119.939h-127.165v119.939zM581.814 404.919c0 11.019 9.032 20.050 20.050 20.050h73.156c11.019 0 20.050-9.032 20.050-20.050s-9.032-20.050-20.050-20.050h-73.156c-11.019 0.181-20.050 9.032-20.050 20.050zM581.814 324.9c0 11.019 9.032 20.050 20.050 20.050h73.156c11.019 0 20.050-9.032 20.050-20.050s-9.032-20.050-20.050-20.050h-73.156c-11.019 0.181-20.050 9.032-20.050 20.050z" />
<glyph unicode="&#xe906;" glyph-name="cargo" d="M733.003 404.919l-17.521-4.696-35.584 132.584c-2.348 8.49-11.019 13.547-19.508 11.199l-33.959-9.032-31.249 116.146c-2.348 8.49-11.019 13.547-19.508 11.199l-131.5-35.404c-8.49-2.348-13.547-11.019-11.199-19.508l70.988-264.083-2.348-0.723c-16.076 12.283-36.307 18.786-57.080 17.16l-89.232 332.362c-1.806 7.045-8.309 11.922-15.534 11.741l-70.446-0.181c-8.851 0-15.896-7.225-15.896-16.076s7.225-15.896 16.076-15.896l58.163 0.181 86.161-320.44c-35.404-17.341-54.912-57.802-44.435-97.36 12.102-44.797 58.163-71.349 102.96-59.428 27.095 7.225 47.506 27.095 56.899 51.661l156.969 42.268 4.696-17.521c2.348-8.49 11.019-13.547 19.508-11.199s13.547 11.019 11.199 19.508l-4.696 17.521 42.087 11.38c8.49 2.348 13.547 11.019 11.199 19.508l-17.702 65.75c-2.168 8.49-11.019 13.547-19.508 11.38v0zM467.836 600.182l34.862 9.393 4.696-17.521c2.348-8.49 11.019-13.547 19.508-11.199s13.547 11.019 11.199 19.508l-4.696 17.521 34.862 9.393 27.095-100.612-100.612-27.095-26.914 100.612zM503.239 468.682l59.608 16.076 4.696-17.521c2.348-8.49 11.019-13.547 19.508-11.199s13.547 11.019 11.199 19.508l-4.696 17.521 59.608 16.076 31.43-117.049-149.924-40.281-31.43 116.869zM463.862 225.733c-27.817-7.406-56.357 9.032-63.944 36.849s9.032 56.357 36.849 63.944c27.817 7.406 56.357-9.032 63.944-36.849 7.406-27.817-9.032-56.538-36.849-63.944zM735.17 335.015l-201.043-54.009c-0.723 12.102-3.974 23.843-9.935 34.862l201.404 54.189 9.573-35.043zM464.404 284.077c-4.335 8.49-14.812 11.38-22.76 6.503-8.128-5.238-9.393-14.992-5.058-22.037 5.238-8.128 14.992-9.393 22.037-5.058 7.225 4.877 9.212 13.547 5.78 20.592v0z" />
<glyph unicode="&#xe907;" glyph-name="charges" d="M569.351 515.466c6.141-6.141 16.076-6.141 22.398 0 6.141 6.141 6.141 16.076 0 22.398-6.864 6.864-16.618 11.199-26.914 13.005v16.799c0 8.67-7.045 15.715-15.715 15.715s-15.715-7.045-15.715-15.715v-18.966c-41.003-13.909-40.642-69.362-2.348-85.258l24.205-10.115c9.032-3.793 12.464-15.715 5.058-23.121-6.141-6.141-25.469-6.141-31.611 0s-16.076 6.141-22.398 0c-6.141-6.141-6.141-16.076 0-22.398 6.864-6.864 16.618-11.199 26.914-13.005v-16.799c0-8.67 7.045-15.715 15.715-15.715s15.715 7.045 15.715 15.715v18.966c41.003 13.909 40.642 69.362 2.348 85.258l-24.205 10.115c-9.032 3.793-12.464 15.715-5.058 23.121 6.322 6.322 25.469 6.322 31.611 0zM758.472 701.697c-6.864 3.071-14.812 1.806-20.411-3.071l-53.106-46.964-53.106 47.506c-7.225 6.503-18.063 6.503-25.288 0l-53.106-47.506-53.106 47.506c-7.225 6.503-18.063 6.503-25.288 0l-53.106-47.506-53.106 46.964c-5.6 4.877-13.547 6.141-20.411 3.071s-11.199-9.754-11.199-17.341v-337.058h-64.485c-10.477 0-18.966-8.49-18.966-18.966v-46.061c0-48.771 38.836-88.509 87.064-90.135v0l333.265 0.181c1.445 0 2.89-0.181 4.335-0.181 49.854 0 90.316 40.461 90.316 90.316v401.905c0.903 7.587-3.613 14.27-10.296 17.341zM344.645 229.887c-28.901 0-52.383 23.482-52.383 52.383v27.095h296.778v-27.095c0-19.508 6.141-37.571 16.799-52.383h-261.193zM731.738 282.271c0-28.901-23.482-52.383-52.383-52.383s-52.383 23.482-52.383 52.383v46.061c0 10.477-8.49 18.966-18.966 18.966h-232.292v295.152l34.139-30.165c7.225-6.322 18.063-6.322 25.108 0l53.106 47.506 53.106-47.506c7.225-6.503 18.063-6.503 25.288 0l53.106 47.506 53.106-47.506c7.225-6.322 18.063-6.503 25.108 0l34.139 30.165v-360.179z" />
<glyph unicode="&#xe908;" glyph-name="comments" d="M713.856 704.045h-281.243c-30.527 0-55.273-24.747-55.273-55.273v-125.539h-67.195c-30.527 0-55.273-24.747-55.273-55.273v-160.581c0-30.527 24.747-55.273 55.273-55.273h92.303l35.765-53.467c2.709-4.155 7.406-6.683 12.464-6.683s9.754 2.529 12.464 6.683l35.765 53.467h92.303c30.527 0 55.273 24.747 55.273 55.273v125.539h67.195c30.527 0 55.273 24.747 55.273 55.273v160.581c0 30.527-24.747 55.273-55.093 55.273zM616.495 307.378c0-13.909-11.199-25.108-25.108-25.108h-100.431c-5.058 0-9.754-2.529-12.464-6.683l-27.637-41.365-27.637 41.365c-2.709 4.155-7.406 6.683-12.464 6.683h-100.431c-13.909 0-25.108 11.199-25.108 25.108v160.581c0 13.909 11.199 25.108 25.108 25.108h67.195v-5.058c0-9.032 2.168-17.521 6.141-25.108h-53.286c-8.309 0-14.992-6.683-14.992-14.992s6.683-14.992 14.992-14.992h194.721l20.050-30.165h-214.951c-8.309 0-14.992-6.683-14.992-14.992s6.683-14.992 14.992-14.992h242.949c5.058 0 9.754 2.529 12.464 6.683l30.707 45.88v-117.952zM738.963 488.191c0-13.909-11.199-25.108-25.108-25.108h-100.431c-5.058 0-9.754-2.529-12.464-6.683l-27.637-41.365-27.637 41.365c-2.709 4.155-7.406 6.683-12.464 6.683h-100.431c-13.909 0-25.108 11.199-25.108 25.108v160.581c0 13.909 11.199 25.108 25.108 25.108h281.063c13.909 0 25.108-11.199 25.108-25.108v-160.581zM571.157 342.602h-240.962c-8.309 0-14.992-6.683-14.992-14.992s6.683-14.992 14.992-14.992h240.962c8.309 0 14.992 6.683 14.992 14.992 0.181 8.309-6.683 14.992-14.992 14.992zM645.758 599.098l-40.642 5.961-18.244 36.849c-2.529 5.058-7.767 8.309-13.547 8.309s-11.019-3.251-13.547-8.309l-18.244-36.849-40.642-5.961c-5.6-0.903-10.296-4.877-12.102-10.296s-0.361-11.38 3.793-15.354l29.443-28.72-7.045-40.642c-0.903-5.6 1.264-11.38 5.961-14.812s10.838-3.793 15.896-1.084l36.488 19.147 36.488-19.147c2.168-1.084 4.696-1.806 7.045-1.806 3.071 0 6.141 0.903 8.851 2.89 4.696 3.432 7.045 9.032 5.961 14.812l-7.045 40.642 29.443 28.72c4.155 3.974 5.6 9.935 3.793 15.354-1.806 5.6-6.503 9.573-12.102 10.296v0zM597.89 560.804c-3.613-3.432-5.238-8.49-4.335-13.367l3.071-18.244-16.437 8.67c-2.168 1.084-4.516 1.806-7.045 1.806s-4.877-0.542-7.045-1.806l-16.437-8.67 3.071 18.244c0.903 4.877-0.723 9.935-4.335 13.367l-13.367 13.005 18.424 2.709c4.877 0.723 9.212 3.793 11.38 8.309l8.128 16.618 8.128-16.618c2.168-4.516 6.503-7.587 11.38-8.309l18.424-2.709-13.005-13.005z" />
<glyph unicode="&#xe909;" glyph-name="quote" d="M413.285 382.521h190.205v-35.043h-190.205v35.043zM413.285 324.177h108.56v-35.043h-108.56v35.043zM688.206 587.718l-119.939 110.546c-5.238 5.058-12.102 7.948-19.508 7.948h-202.849c-15.354 0-27.998-12.644-27.998-27.998v-456.095c0-15.354 12.644-27.998 27.998-27.998h322.427c15.354 0 27.998 12.644 27.998 27.998v345.729c0 7.406-2.89 14.451-8.128 19.869zM555.442 650.939l81.645-76.226h-78.936c-1.445 0-2.529 1.084-2.529 2.529v73.698zM661.292 229.165h-308.338v442.005h167.445v-93.928c0-20.773 16.799-37.571 37.571-37.571h103.321v-310.506zM413.285 440.865h190.205v-35.043h-190.205v35.043zM413.285 499.209h190.205v-35.043h-190.205v35.043z" />
<glyph unicode="&#xe90a;" glyph-name="dashboard" d="M753.956 485.3l-1.264 1.264c0 0 0 0 0 0l-208.991 208.991c-9.754 9.754-22.76 15.173-36.488 15.173s-26.733-5.419-36.488-15.173l-209.171-208.991c-20.050-20.050-20.050-52.925 0.181-72.975 9.212-9.212 21.315-14.451 34.139-14.992 0.542 0 1.264 0 1.806 0h3.793v-149.202c0-32.875 26.733-59.608 59.608-59.608h81.645c10.838 0 19.508 8.851 19.508 19.508v120.301c0 11.38 9.212 20.592 20.592 20.592h48.229c11.38 0 20.592-9.212 20.592-20.592v-120.481c0-10.838 8.67-19.508 19.508-19.508h81.645c32.875 0 59.608 26.733 59.608 59.608v149.202h3.251c13.728 0 26.733 5.419 36.488 15.173 20.050 19.689 20.592 51.48 1.806 71.711zM673.756 417.925v-168.71c0-11.38-9.212-20.592-20.592-20.592h-62.137v100.973c0 32.875-26.733 59.608-59.608 59.608h-48.229c-32.875 0-59.789-26.733-59.789-59.608v-100.973h-62.137c-11.38 0-20.592 9.212-20.592 20.592v168.71c0 10.838-8.67 19.508-19.508 19.508h-22.94c-3.251 0-6.322 1.445-8.67 3.613-2.348 2.348-3.613 5.6-3.613 8.851s1.264 6.503 3.793 9.032l208.81 208.81c4.696 4.696 13.005 4.696 17.883 0l208.991-208.991c4.877-4.877 4.877-12.825 0-17.883-2.348-2.348-5.6-3.793-9.032-3.793h-22.76c-11.019 0.361-19.869-8.309-19.869-19.147z" />
<glyph unicode="&#xe90b;" glyph-name="rate-breakdown" d="M451.398 496.861h116.869c10.477 0 18.966 8.49 18.966 18.966s-8.49 18.966-18.966 18.966h-116.869c-10.477 0-18.966-8.49-18.966-18.966s8.49-18.966 18.966-18.966zM656.596 446.465h-205.197c-10.477 0-18.966-8.49-18.966-18.966s8.49-18.966 18.966-18.966h205.197c10.477 0 18.966 8.49 18.966 18.966s-8.49 18.966-18.966 18.966zM758.472 701.697c-6.864 3.071-14.812 1.806-20.411-3.071l-53.106-46.964-53.106 47.506c-7.225 6.503-18.063 6.503-25.288 0l-53.106-47.506-53.106 47.506c-7.225 6.503-18.063 6.503-25.288 0l-53.106-47.506-53.106 46.964c-5.6 4.877-13.547 6.141-20.411 3.071s-11.199-9.754-11.199-17.341v-337.058h-64.485c-10.477 0-18.966-8.49-18.966-18.966v-46.061c0-48.771 38.836-88.509 87.064-90.135v0l333.265 0.181c1.445 0 2.89-0.181 4.335-0.181 49.854 0 90.316 40.461 90.316 90.316v401.905c0.903 7.587-3.613 14.27-10.296 17.341zM292.262 282.271v27.095h296.778v-27.095c0-19.508 6.141-37.571 16.799-52.383h-261.193c-28.901 0-52.383 23.482-52.383 52.383zM731.738 282.271c0-28.901-23.482-52.383-52.383-52.383s-52.383 23.482-52.383 52.383v46.061c0 10.477-8.49 18.966-18.966 18.966h-232.292v295.152l34.139-30.165c7.225-6.322 18.063-6.322 25.108 0l53.106 47.506 53.106-47.506c7.225-6.503 18.063-6.503 25.288 0l53.106 47.506 53.106-47.506c7.225-6.322 18.063-6.503 25.108 0l34.139 30.165v-360.179z" />
<glyph unicode="&#xe90c;" glyph-name="destination" d="M181.354 201.528h661.473v-36.126h-661.473v36.126zM794.056 426.234c-22.94 18.605-48.409 31.791-75.865 39.197l-22.037 5.961-28.359 7.587-287.023 77.31-14.27 22.76c-15.896 25.469-25.83 56.718-28.72 90.496-2.168 26.372-16.799 46.784-37.029 52.203l-31.069 8.309c-5.419 1.445-11.38-0.361-16.257-4.877s-8.128-11.38-8.67-18.605l-13.909-153.717c-9.573-7.587-17.521-19.328-21.315-33.597-7.767-29.082 3.974-57.441 26.192-63.582l39.558-10.657 116.869-77.31c1.264-0.903 2.709-1.445 4.155-1.987l21.315-5.78c3.793-14.992 13.367-26.733 26.733-30.346l138.544-37.391c13.367-3.613 27.456 1.626 38.475 12.825l50.216-13.547c27.456-7.406 56.176-8.851 85.258-4.335 25.83 3.974 48.229 27.275 56.718 59.067 8.49 32.333 0.903 63.582-19.508 80.020zM306.17 486.384l-57.983 15.534c-2.709 0.723-4.155 4.155-3.251 7.587s3.974 5.78 6.683 5.058l57.983-15.534c2.709-0.723 4.155-4.155 3.251-7.587-1.084-3.432-3.974-5.78-6.683-5.058zM595.542 338.808l-138.544 37.391c-2.709 0.723-4.155 4.155-3.251 7.587s3.974 5.78 6.683 5.058l138.544-37.391c2.709-0.723 4.155-4.155 3.251-7.587-1.084-3.432-4.155-5.78-6.683-5.058zM757.027 334.473c-24.927-3.974-49.493-2.709-73.156 3.613l-44.074 11.922c0.723 22.94-10.477 42.99-28.54 47.867l-138.544 37.391c-18.244 4.877-37.933-6.683-48.771-26.914l-13.005 3.432-73.156 48.229c4.516 6.322 8.128 13.728 10.296 22.037 7.767 29.082-3.974 57.441-26.192 63.582l-53.286 14.27 10.657 118.133 8.851-2.348c6.683-1.806 11.38-8.49 12.102-16.979 3.432-41.545 15.715-80.2 35.404-111.63l17.702-28.359c2.168-3.613 5.419-6.141 9.212-7.045l343.019-92.303c4.335-1.264 8.67-2.529 13.005-4.155-2.709-3.071-4.696-7.045-5.961-11.38-3.432-12.825 1.806-25.288 11.56-27.998l54.551-14.631c-0.361-1.987-0.723-3.613-0.903-4.696-1.084-4.877-6.141-19.689-20.773-22.037z" />
<glyph unicode="&#xe90d;" glyph-name="discount" d="M459.527 359.039l70.627 212.061c2.529 7.948-1.626 16.437-9.573 18.966s-16.437-1.626-18.966-9.573l-70.627-212.061c-2.529-7.948 1.626-16.437 9.573-18.966 1.626-0.542 3.251-0.723 4.696-0.723 6.322 0 12.283 3.974 14.27 10.296zM565.557 424.789c24.747 0 44.977 20.231 44.977 44.977s-20.231 44.977-44.977 44.977-44.977-20.231-44.977-44.977c0-24.747 20.231-44.977 44.977-44.977zM565.557 484.759c8.309 0 14.992-6.683 14.992-14.992s-6.683-14.992-14.992-14.992c-8.309 0-14.992 6.683-14.992 14.992s6.683 14.992 14.992 14.992zM395.764 514.743c-24.747 0-44.977-20.231-44.977-44.977s20.231-44.977 44.977-44.977 44.977 20.231 44.977 44.977c0 24.927-20.050 44.977-44.977 44.977zM395.764 454.774c-8.309 0-14.992 6.683-14.992 14.992s6.683 14.992 14.992 14.992c8.309 0 14.992-6.683 14.992-14.992s-6.683-14.992-14.992-14.992zM764.974 517.995l-52.383 69.724 1.987 14.27c0.723 4.696-0.903 9.393-4.155 12.644l-31.791 31.791 31.791 31.791c5.78 5.78 5.78 15.354 0 21.134s-15.354 5.78-21.134 0l-31.791-31.791-31.791 31.791c-3.251 3.251-8.128 4.877-12.644 4.155l-148.479-21.134c-3.251-0.542-6.141-1.987-8.49-4.155l-184.064-183.702c-21.495-21.495-21.495-56.357 0-77.852l155.524-155.524c3.251-3.251 6.683-5.961 10.296-8.128v-6.141c0-30.346 24.747-55.093 55.093-55.093h220.009c30.346 0 55.093 24.747 55.093 55.093v262.096c0 3.251-1.084 6.503-3.071 9.032v0zM293.346 437.975c-9.754 9.754-9.754 25.65 0 35.404l180.27 180.27 136.196 19.508 26.553-26.553-21.134-21.134-10.657 10.657c-5.78 5.78-15.354 5.78-21.134 0s-5.78-15.354 0-21.134l42.448-42.448c2.89-2.89 6.683-4.335 10.657-4.335s7.767 1.445 10.657 4.335c5.78 5.78 5.78 15.354 0 21.134l-10.657 10.657 21.134 21.134 26.553-26.553-19.508-136.196-180.27-180.27c-4.696-4.696-11.019-7.406-17.702-7.406s-13.005 2.529-17.702 7.406l-155.704 155.524zM738.060 247.047c0-13.728-11.199-24.927-24.927-24.927h-220.19c-13.186 0-24.024 10.296-24.927 23.121 13.547 0.361 27.095 5.78 37.391 16.076l183.883 183.883c2.348 2.348 3.793 5.238 4.155 8.49l13.186 92.303 31.249-41.726 0.181-257.219z" />
<glyph unicode="&#xe90e;" glyph-name="documents" d="M553.636 704.045h-202.849c-15.534 0-27.998-12.644-27.998-27.998v-456.095c0-15.534 12.644-27.998 27.998-27.998h322.427c15.534 0 27.998 12.644 27.998 27.998v345.909c0 7.406-2.89 14.451-8.128 19.869l-119.939 110.546c-5.238 4.877-12.283 7.767-19.508 7.767zM666.169 226.997h-308.338v442.005h167.445v-93.928c0-20.773 16.799-37.571 37.571-37.571h103.321v-310.506zM562.848 572.545c-1.445 0-2.529 1.084-2.529 2.529v73.698l81.645-76.226h-79.117z" />
<glyph unicode="&#xe90f;" glyph-name="date" d="M662.014 493.971c0-11.073-8.977-20.050-20.050-20.050s-20.050 8.977-20.050 20.050c0 11.073 8.977 20.050 20.050 20.050s20.050-8.977 20.050-20.050zM688.025 663.945h-24.927v20.050c0 11.019-9.032 20.050-20.050 20.050-0.181 0-0.361 0-0.542 0s-0.361 0-0.542 0c-11.019 0-20.050-9.032-20.050-20.050v-20.050h-89.051v20.050c0 11.019-9.032 20.050-20.050 20.050-0.361 0-0.723 0-1.084 0s-0.723 0-1.084 0c-11.019 0-20.050-9.032-20.050-20.050v-20.050h-89.051v20.050c0 11.019-9.032 20.050-20.050 20.050-0.181 0-0.361 0-0.542 0s-0.361 0-0.542 0c-11.019 0-20.050-9.032-20.050-20.050v-20.050h-24.385c-44.074 0-80.020-35.946-80.020-80.020v-311.951c0-44.074 35.946-80.020 80.020-80.020h352.051c44.074 0 80.020 35.946 80.020 80.020v311.951c0 44.255-35.946 80.020-80.020 80.020zM728.126 271.975c0-22.037-17.883-39.92-39.92-39.92h-352.231c-22.037 0-39.92 17.883-39.92 39.92v311.951c0 22.037 17.883 39.92 39.92 39.92h24.927v-20.050c0-11.019 9.032-20.050 20.050-20.050 0.181 0 0.361 0 0.542 0s0.361 0 0.542 0c11.019 0 20.050 9.032 20.050 20.050v20.231h89.051v-20.050c0-11.019 9.032-20.050 20.050-20.050 0.361 0 0.723 0 1.084 0s0.723 0 1.084 0c11.019 0 20.050 9.032 20.050 20.050v20.050h89.051v-20.050c0-11.019 9.032-20.050 20.050-20.050 0.181 0 0.361 0 0.542 0s0.361 0 0.542 0c11.019 0 20.050 9.032 20.050 20.050v20.050h24.927c22.037 0 39.92-17.883 39.92-39.92v-312.131zM575.131 493.971c0-11.073-8.977-20.050-20.050-20.050s-20.050 8.977-20.050 20.050c0 11.073 8.977 20.050 20.050 20.050s20.050-8.977 20.050-20.050zM488.066 406.906c0-11.073-8.977-20.050-20.050-20.050s-20.050 8.977-20.050 20.050c0 11.073 8.977 20.050 20.050 20.050s20.050-8.977 20.050-20.050zM401.002 493.971c0-11.073-8.977-20.050-20.050-20.050s-20.050 8.977-20.050 20.050c0 11.073 8.977 20.050 20.050 20.050s20.050-8.977 20.050-20.050zM401.002 406.906c0-11.073-8.977-20.050-20.050-20.050s-20.050 8.977-20.050 20.050c0 11.073 8.977 20.050 20.050 20.050s20.050-8.977 20.050-20.050zM401.002 320.023c0-11.073-8.977-20.050-20.050-20.050s-20.050 8.977-20.050 20.050c0 11.073 8.977 20.050 20.050 20.050s20.050-8.977 20.050-20.050zM488.066 320.023c0-11.073-8.977-20.050-20.050-20.050s-20.050 8.977-20.050 20.050c0 11.073 8.977 20.050 20.050 20.050s20.050-8.977 20.050-20.050zM662.014 406.906c0-11.073-8.977-20.050-20.050-20.050s-20.050 8.977-20.050 20.050c0 11.073 8.977 20.050 20.050 20.050s20.050-8.977 20.050-20.050zM575.131 406.906c0-11.073-8.977-20.050-20.050-20.050s-20.050 8.977-20.050 20.050c0 11.073 8.977 20.050 20.050 20.050s20.050-8.977 20.050-20.050zM575.131 320.023c0-11.073-8.977-20.050-20.050-20.050s-20.050 8.977-20.050 20.050c0 11.073 8.977 20.050 20.050 20.050s20.050-8.977 20.050-20.050zM662.014 320.023c0-11.073-8.977-20.050-20.050-20.050s-20.050 8.977-20.050 20.050c0 11.073 8.977 20.050 20.050 20.050s20.050-8.977 20.050-20.050zM488.066 493.971c0-11.073-8.977-20.050-20.050-20.050s-20.050 8.977-20.050 20.050c0 11.073 8.977 20.050 20.050 20.050s20.050-8.977 20.050-20.050z" />
<glyph unicode="&#xe910;" glyph-name="finance" d="M521.844 527.207h-19.689c-8.67 0-15.715 7.767-15.715 17.16s7.045 17.16 15.715 17.16h39.558c7.587 0 13.909 6.683 13.909 14.992s-6.141 14.992-13.909 14.992h-15.715v17.16c0 8.309-6.141 14.992-13.909 14.992-7.587 0-13.909-6.683-13.909-14.992v-17.341c-22.037-2.168-39.558-22.398-39.558-46.964 0-26.011 19.508-47.145 43.352-47.145h19.689c8.67 0 15.715-7.767 15.715-17.16s-7.045-17.16-15.715-17.16h-39.558c-7.587 0-13.909-6.683-13.909-14.992s6.141-14.992 13.909-14.992h15.715v-17.16c0-8.309 6.141-14.992 13.909-14.992s13.909 6.683 13.909 14.992v17.341c22.037 2.168 39.558 22.398 39.558 46.964 0.181 26.011-19.328 47.145-43.352 47.145zM585.969 350.549h-148.118c-7.587 0-13.909-6.683-13.909-14.992s6.141-14.992 13.909-14.992h148.118c7.587 0 13.909 6.683 13.909 14.992s-6.141 14.992-13.909 14.992zM674.839 704.045h-325.679c-7.587 0-13.909-6.683-13.909-14.992v-437.851c0-3.974 1.445-7.767 3.974-10.657l40.642-44.255c5.419-5.78 14.089-5.78 19.508 0l30.888 33.597 30.888-33.597c2.529-2.89 6.141-4.335 9.754-4.335s7.225 1.626 9.754 4.335l30.888 33.597 30.888-33.597c2.529-2.89 6.141-4.335 9.754-4.335s7.225 1.626 9.754 4.335l30.888 33.597 30.888-33.597c2.709-2.89 6.322-4.335 9.754-4.335 3.613 0 7.045 1.445 9.754 4.335l40.642 44.255c2.529 2.89 3.974 6.683 3.974 10.657v437.851c0.903 8.128-5.419 14.992-13.005 14.992zM634.197 228.262l-30.888 33.597c-2.529 2.89-6.141 4.335-9.754 4.335s-7.225-1.626-9.754-4.335l-30.888-33.597-30.888 33.597c-5.419 5.78-14.089 5.78-19.508 0l-30.888-33.597-30.888 33.597c-2.529 2.89-6.141 4.335-9.754 4.335s-7.225-1.626-9.754-4.335l-30.888-33.597-27.275 29.082v416.717h298.042v-416.717l-26.914-29.082z" />
<glyph unicode="&#xe911;" glyph-name="frequency" d="M662.014 493.971c0-11.073-8.977-20.050-20.050-20.050s-20.050 8.977-20.050 20.050c0 11.073 8.977 20.050 20.050 20.050s20.050-8.977 20.050-20.050zM688.025 663.945h-25.108v20.050c0 11.019-9.032 20.050-20.050 20.050-0.181 0-0.361 0-0.542 0s-0.361 0-0.542 0c-11.019 0-20.050-9.032-20.050-20.050v-20.050h-89.051v20.050c0 11.019-9.032 20.050-20.050 20.050-0.361 0-0.723 0-1.084 0s-0.723 0-1.084 0c-11.019 0-20.050-9.032-20.050-20.050v-20.050h-89.051v20.050c0 11.019-9.032 20.050-20.050 20.050-0.181 0-0.361 0-0.542 0s-0.361 0-0.542 0c-11.019 0-20.050-9.032-20.050-20.050v-20.050h-24.205c-44.074 0-80.020-35.946-80.020-80.020v-311.951c0-44.074 35.946-80.020 80.020-80.020h352.051c44.074 0 80.020 35.946 80.020 80.020v311.951c0 44.255-35.946 80.020-80.020 80.020zM727.945 271.975c0-22.037-17.883-39.92-39.92-39.92h-352.051c-22.037 0-39.92 17.883-39.92 39.92v311.951c0 22.037 17.883 39.92 39.92 39.92h24.927v-20.050c0-11.019 9.032-20.050 20.050-20.050 0.181 0 0.361 0 0.542 0s0.361 0 0.542 0c11.019 0 20.050 9.032 20.050 20.050v20.231h89.051v-20.050c0-11.019 9.032-20.050 20.050-20.050 0.361 0 0.723 0 1.084 0s0.723 0 1.084 0c11.019 0 20.050 9.032 20.050 20.050v20.050h89.051v-20.050c0-11.019 9.032-20.050 20.050-20.050 0.181 0 0.361 0 0.542 0s0.361 0 0.542 0c11.019 0 20.050 9.032 20.050 20.050v20.050h24.927c22.037 0 39.92-17.883 39.92-39.92v-312.131zM575.131 493.971c0-11.073-8.977-20.050-20.050-20.050s-20.050 8.977-20.050 20.050c0 11.073 8.977 20.050 20.050 20.050s20.050-8.977 20.050-20.050zM488.066 407.087c0-11.073-8.977-20.050-20.050-20.050s-20.050 8.977-20.050 20.050c0 11.073 8.977 20.050 20.050 20.050s20.050-8.977 20.050-20.050zM401.002 493.971c0-11.073-8.977-20.050-20.050-20.050s-20.050 8.977-20.050 20.050c0 11.073 8.977 20.050 20.050 20.050s20.050-8.977 20.050-20.050zM401.002 407.087c0-11.073-8.977-20.050-20.050-20.050s-20.050 8.977-20.050 20.050c0 11.073 8.977 20.050 20.050 20.050s20.050-8.977 20.050-20.050zM401.002 320.023c0-11.073-8.977-20.050-20.050-20.050s-20.050 8.977-20.050 20.050c0 11.073 8.977 20.050 20.050 20.050s20.050-8.977 20.050-20.050zM488.066 320.023c0-11.073-8.977-20.050-20.050-20.050s-20.050 8.977-20.050 20.050c0 11.073 8.977 20.050 20.050 20.050s20.050-8.977 20.050-20.050zM662.014 407.087c0-11.073-8.977-20.050-20.050-20.050s-20.050 8.977-20.050 20.050c0 11.073 8.977 20.050 20.050 20.050s20.050-8.977 20.050-20.050zM575.131 407.087c0-11.073-8.977-20.050-20.050-20.050s-20.050 8.977-20.050 20.050c0 11.073 8.977 20.050 20.050 20.050s20.050-8.977 20.050-20.050zM575.131 320.023c0-11.073-8.977-20.050-20.050-20.050s-20.050 8.977-20.050 20.050c0 11.073 8.977 20.050 20.050 20.050s20.050-8.977 20.050-20.050zM662.014 320.023c0-11.073-8.977-20.050-20.050-20.050s-20.050 8.977-20.050 20.050c0 11.073 8.977 20.050 20.050 20.050s20.050-8.977 20.050-20.050zM488.066 493.971c0-11.073-8.977-20.050-20.050-20.050s-20.050 8.977-20.050 20.050c0 11.073 8.977 20.050 20.050 20.050s20.050-8.977 20.050-20.050z" />
<glyph unicode="&#xe912;" glyph-name="incoterm" d="M608.548 484.036c0 11.019-9.032 20.050-20.050 20.050h-206.101c-11.019 0-20.050-9.032-20.050-20.050s9.032-20.050 20.050-20.050h206.101c11.019 0 20.050 9.032 20.050 20.050zM382.397 424.066c-11.019 0-20.050-9.032-20.050-20.050s9.032-20.050 20.050-20.050h125.178c11.019 0 20.050 9.032 20.050 20.050s-9.032 20.050-20.050 20.050h-125.178zM429.542 232.055h-66.834c-22.037 0-39.92 17.883-39.92 39.92v352.051c0 22.037 17.883 39.92 39.92 39.92h245.839c22.037 0 39.92-17.883 39.92-39.92v-123.010c0-11.019 9.032-20.050 20.050-20.050s20.050 9.032 20.050 20.050v123.010c0 44.074-35.946 80.020-80.020 80.020h-246.020c-44.074 0-80.020-35.946-80.020-80.020v-352.051c0-44.074 35.946-80.020 80.020-80.020h66.834c11.019 0 20.050 9.032 20.050 20.050s-8.851 20.050-19.869 20.050zM723.971 414.493c-23.482 23.482-61.415 23.482-84.897 0l-109.824-109.643c-2.348-2.348-3.974-5.238-5.058-8.309l-23.843-78.755c-2.168-7.045-0.361-14.631 4.877-19.869 3.793-3.974 9.032-5.961 14.27-5.961 1.806 0 3.613 0.181 5.419 0.723l80.742 22.398c3.251 0.903 6.322 2.709 8.851 5.058l109.643 109.463c23.121 23.301 23.121 61.415-0.181 84.897zM589.762 252.286l-40.642-11.199 11.922 39.197 74.059 73.878 28.359-28.359-73.698-73.517zM695.612 357.955l-3.793-3.793-28.359 28.359 3.793 3.793c7.767 7.767 20.411 7.767 28.359 0 7.767-7.948 7.767-20.592 0-28.359zM588.497 583.925h-206.101c-11.019 0-20.050-9.032-20.050-20.050s9.032-20.050 20.050-20.050h206.101c11.019 0 20.050 9.032 20.050 20.050 0 11.199-9.032 20.050-20.050 20.050z" />
<glyph unicode="&#xe913;" glyph-name="itinerary" d="M511.91 704.045c-141.254 0-255.955-114.882-255.955-255.955 0-141.254 114.882-255.955 255.955-255.955 141.254 0 255.955 114.882 255.955 255.955s-114.701 255.955-255.955 255.955zM511.91 247.951c-110.366 0-200.14 89.774-200.14 200.14s89.774 200.14 200.14 200.14 200.14-89.774 200.14-200.14c0-110.366-89.774-200.14-200.14-200.14zM534.127 447.729v107.295c0 11.922-9.754 21.676-21.676 21.676s-21.676-9.754-21.676-21.676v-114.159c0-0.361 0-0.723 0.181-1.084-0.361-5.961 1.806-11.922 6.322-16.437l80.742-80.742c8.49-8.49 22.218-8.49 30.707 0s8.49 22.218 0 30.707l-74.601 74.42z" />
<glyph unicode="&#xe914;" glyph-name="logikoin" d="M544.423 510.589c9.393-9.393 24.566-9.393 33.778 0 9.393 9.393 9.393 24.566 0 33.778-10.477 10.477-25.108 16.979-40.823 19.689v25.288c0 13.186-10.657 24.024-24.024 24.024s-24.024-10.657-24.024-24.024v-28.901c-62.318-21.134-61.595-105.308-3.613-129.332l36.849-15.173c13.728-5.78 18.786-24.024 7.767-35.043-9.393-9.393-38.475-9.393-47.867 0s-24.566 9.393-33.778 0c-9.393-9.393-9.393-24.566 0-33.778 10.477-10.477 25.108-16.979 40.823-19.689v-25.288c0-13.186 10.657-24.024 24.024-24.024s24.024 10.657 24.024 24.024v28.901c62.318 21.134 61.595 105.308 3.613 129.332l-36.849 15.173c-13.728 5.78-18.786 24.024-7.767 35.043 9.393 9.393 38.475 9.393 47.867 0zM511.91 704.045c-141.073 0-255.955-114.882-255.955-255.955s114.882-255.955 255.955-255.955 255.955 114.882 255.955 255.955-114.701 255.955-255.955 255.955zM511.91 234.584c-117.591 0-213.326 95.735-213.326 213.326s95.735 213.326 213.326 213.326 213.326-95.735 213.326-213.326-95.554-213.326-213.326-213.326z" />
<glyph unicode="&#xe915;" glyph-name="logikoins" d="M592.11 544.006c-96.999 0-175.935-78.936-175.935-175.935 0-59.428 29.624-112.172 74.962-143.963h-187.134c-8.851 0-16.076 7.225-16.076 16.076v31.972c0 8.851 7.225 16.076 16.076 16.076h80.020c8.851 0 16.076 7.225 16.076 16.076s-7.225 16.076-16.076 16.076h-31.972c-8.851 0-16.076 7.225-16.076 16.076v31.972c0 8.851 7.225 16.076 16.076 16.076h31.972c8.851 0 16.076 7.225 16.076 16.076s-7.225 16.076-16.076 16.076c-17.341 0-53.828 0-63.944 0-8.851 0-16.076 7.225-16.076 16.076v31.972c0 8.851 7.225 16.076 16.076 16.076h95.915c8.851 0 16.076 7.225 16.076 16.076s-7.225 16.076-16.076 16.076h-63.944c-8.851 0-16.076 7.225-16.076 16.076v31.972c0 8.851 7.225 16.076 16.076 16.076h175.935c26.553 0 48.048 21.495 48.048 48.048v31.972c0 26.553-21.495 48.048-48.048 48.048h-223.983c-26.553 0-48.048-21.495-48.048-48.048v-31.972c0-24.385 18.424-48.048 50.757-48.048-1.806-5.058-2.709-10.477-2.709-16.076 0-33.778-0.903-38.836 3.432-49.674-20.411-5.6-35.404-24.205-35.404-46.242v-31.972c0-22.037 14.992-40.823 35.404-46.242-2.168-5.419-3.432-11.38-3.432-17.702 0-33.056-0.903-37.933 2.709-48.048-32.514 0-50.757-23.843-50.757-48.048v-31.972c0-26.553 21.495-48.048 48.048-48.048h287.927c96.999 0 175.935 78.936 175.935 175.935s-78.755 175.032-175.754 175.032v0zM287.927 624.025v31.972c0 8.851 7.225 16.076 16.076 16.076h223.983c8.851 0 16.076-7.225 16.076-16.076v-31.972c0-8.851-7.225-16.076-16.076-16.076-22.579 0-201.404 0-223.983 0-8.851 0-16.076 7.225-16.076 16.076zM592.11 223.927c-79.478 0-143.963 64.666-143.963 143.963s64.666 143.963 143.963 143.963c79.478 0 143.963-64.666 143.963-143.963s-64.666-143.963-143.963-143.963zM580.73 411.241c6.322 6.322 25.65 6.322 31.972 0s16.437-6.322 22.579 0c6.322 6.322 6.322 16.437 0 22.579-6.864 6.864-16.799 11.38-27.275 13.186v16.979c0 8.851-7.225 16.076-16.076 16.076s-16.076-7.225-16.076-16.076v-19.328c-41.726-14.089-41.184-70.266-2.348-86.342l24.566-10.115c9.212-3.793 12.644-16.076 5.238-23.482-6.322-6.322-25.65-6.322-31.972 0s-16.437 6.322-22.579 0c-6.322-6.322-6.322-16.437 0-22.579 6.864-6.864 16.799-11.38 27.275-13.186v-16.979c0-8.851 7.225-16.076 16.076-16.076s16.076 7.225 16.076 16.076v19.328c41.726 14.089 41.184 70.266 2.348 86.342l-24.566 10.115c-9.393 3.974-12.644 16.076-5.238 23.482z" />
<glyph unicode="&#xe916;" glyph-name="my-quotes" d="M803.63 552.315c-1.264 0-25.469 0.903-61.053 0v73.156c0 10.838-9.212 19.328-20.050 18.424-70.988-5.961-161.485-37.391-215.313-94.651-53.828 57.26-144.325 88.69-215.313 94.651-10.838 0.903-20.050-7.587-20.050-18.424v-75.143c-20.231 0.723-39.378 1.264-59.97 1.987-10.296 0.361-18.966-7.948-18.966-18.424v-336.697c0-9.754 7.587-17.883 17.341-18.424 73.517-4.877 196.708-5.419 289.914-45.158 8.309-3.613 15.715 0.542 14.451 0 93.025 39.739 216.216 40.281 289.914 45.158 9.754 0.723 17.341 8.67 17.341 18.424v336.697c-0.361 9.935-8.309 18.063-18.244 18.424v0zM705.547 604.698v-317.008c-53.286-11.922-120.842-37.391-179.909-91.4 0 16.257 0 309.061 0 317.911 40.461 50.577 117.049 80.923 179.909 90.496v0zM308.699 604.698c62.86-9.573 139.448-39.92 179.909-90.496v-317.911c-59.067 54.009-126.623 79.478-179.909 91.4v317.008zM229.763 214.534v300.21c13.186-0.361 27.456-0.903 41.907-1.445v-240.782c0-8.851 6.322-16.618 14.992-18.244 42.268-7.948 97.18-25.108 148.298-62.137-72.794 16.618-149.202 19.147-205.197 22.398v0zM784.483 214.534c-55.815-3.071-132.403-5.78-205.378-22.218 51.119 37.029 106.031 54.189 148.298 62.137 8.67 1.626 14.992 9.212 14.992 18.244v242.769c16.979 0.361 31.43 0.361 41.907 0.361l0.181-301.293zM440.741 471.572c-14.27 9.935-39.016 22.218-65.389 26.733-10.115 1.626-19.689-5.058-21.315-15.173s5.058-19.689 15.173-21.315c20.411-3.432 39.92-13.186 50.396-20.592 8.309-5.78 19.869-3.793 25.83 4.516 5.78 8.49 3.613 20.050-4.696 25.83v0zM438.935 367.529c-13.186 8.128-39.016 22.218-63.582 26.372-10.115 1.626-19.689-5.058-21.315-15.173s5.058-19.689 15.173-21.315c19.147-3.251 41.545-16.076 50.396-21.495 8.67-5.238 20.050-2.529 25.469 6.141 5.238 8.67 2.529 20.050-6.141 25.469v0zM594.82 441.226c10.477 7.406 29.985 17.16 50.396 20.592 10.115 1.626 16.799 11.199 15.173 21.315s-11.199 16.799-21.315 15.173c-26.372-4.516-51.119-16.618-65.389-26.733-8.309-5.78-10.477-17.341-4.516-25.83 5.6-8.309 17.16-10.296 25.65-4.516v0zM638.894 393.901c-24.566-4.155-50.396-18.244-63.582-26.372-8.67-5.238-11.38-16.618-6.141-25.469 5.238-8.67 16.618-11.38 25.469-6.141 8.851 5.419 31.249 18.244 50.396 21.495 10.115 1.626 16.799 11.199 15.173 21.315-1.626 9.935-11.199 16.799-21.315 15.173z" />
<glyph unicode="&#xe917;" glyph-name="new-user" d="M621.734 447.187c-9.754 4.516-19.508 8.49-29.624 11.922 32.514 24.385 53.648 63.221 53.648 107.114 0 73.698-59.97 133.667-133.667 133.667s-133.667-59.97-133.667-133.667c0-43.713 21.134-82.729 53.648-107.114-29.804-9.754-57.802-25.108-82.368-45.339-44.977-37.029-76.226-88.509-87.968-145.228-3.613-17.702 0.723-35.946 12.102-50.035 11.38-13.909 28.179-22.037 46.242-22.037h242.227c10.838 0 19.689 8.851 19.689 19.689s-8.851 19.689-19.689 19.689h-242.407c-8.309 0-13.547 4.696-15.715 7.406-3.974 4.877-5.419 11.019-4.155 17.16 20.411 98.083 106.934 169.613 206.823 172.142 1.806 0 3.432-0.181 5.238-0.181s3.432 0 5.238 0.181c30.527-0.723 59.97-7.767 87.606-20.773 9.754-4.696 21.495-0.542 26.192 9.393 4.516 9.573 0.361 21.315-9.393 26.011zM516.787 471.753c-1.626 0-3.251 0-4.877 0s-3.251 0-4.696 0c-49.854 2.529-89.593 43.893-89.593 94.29 0 52.022 42.268 94.47 94.47 94.47s94.47-42.268 94.47-94.47c-0.181-50.396-39.92-91.761-89.774-94.29zM744.021 309.365h-54.009v54.009c0 10.838-8.851 19.689-19.689 19.689s-19.689-8.851-19.689-19.689v-54.009h-54.009c-10.838 0-19.689-8.851-19.689-19.689s8.851-19.689 19.689-19.689h54.009v-54.009c0-10.838 8.851-19.689 19.689-19.689s19.689 8.851 19.689 19.689v54.009h54.009c10.838 0 19.689 8.851 19.689 19.689s-8.67 19.689-19.689 19.689z" />
<glyph unicode="&#xe918;" glyph-name="origin" d="M761.001 703.684c-29.262-3.071-56.718-11.741-81.284-26.011l-19.689-11.38-25.469-14.631-257.581-148.298-26.192 5.961c-29.262 6.683-58.344 21.676-84.355 43.532-20.231 16.979-44.977 21.315-63.221 10.657l-27.998-15.896c-4.877-2.709-7.767-8.309-7.948-14.992s2.348-13.728 7.045-19.328l98.805-118.494c-1.445-12.102 1.264-26.011 8.67-38.836 14.992-26.011 43.532-37.933 63.402-26.372l35.404 20.411 137.28 27.998c1.626 0.361 3.071 0.903 4.335 1.626l19.147 11.019c13.367-7.948 28.359-9.393 40.461-2.529l124.455 71.53c11.922 6.864 18.244 20.592 18.063 36.307l25.288 14.451 19.689 11.38c24.566 14.27 45.88 33.417 63.221 57.26 15.534 21.134 14.812 53.286-1.626 81.826-16.437 28.901-43.893 45.519-69.904 42.81zM373.365 401.307l-52.022-29.985c-2.348-1.445-5.78 0-7.587 3.251-1.806 3.071-1.264 6.864 1.084 8.309l52.022 29.985c2.348 1.445 5.78 0 7.587-3.251s1.264-7.045-1.084-8.309zM682.245 501.377l-124.455-71.53c-2.348-1.445-5.78 0-7.587 3.251-1.806 3.071-1.264 6.864 1.084 8.309l124.455 71.53c2.348 1.445 5.78 0 7.587-3.251s1.445-6.864-1.084-8.309zM799.656 612.646c-14.812-20.411-33.056-36.849-54.37-49.132l-39.378-22.76c-15.715 16.799-37.752 22.94-54.009 13.547l-124.455-71.53c-16.437-9.393-22.037-31.611-15.354-53.467l-11.56-6.683-85.8-17.521c-1.264 7.587-3.974 15.354-8.309 22.76-14.992 26.011-43.532 37.933-63.402 26.372l-47.867-27.456-75.865 91.038 7.948 4.516c5.961 3.432 14.089 1.987 20.592-3.432 31.972-26.914 67.917-45.519 104.044-53.828l32.514-7.406c4.155-0.903 8.128-0.361 11.38 1.445l307.796 177.2c3.974 2.348 7.948 4.335 12.102 6.322 0.361-3.974 1.626-8.309 3.793-12.283 6.683-11.38 19.147-16.618 27.817-11.56l48.951 28.179c1.264-1.626 2.168-3.071 2.709-3.974 2.529-4.335 9.393-18.424 0.723-30.346zM195.263 228.081h661.473v-36.126h-661.473v36.126z" />
<glyph unicode="&#xe919;" glyph-name="profile" d="M697.057 625.29c-48.409 50.396-115.243 78.936-184.967 78.755-141.254 0.181-255.774-114.159-255.955-255.232 0-69.724 28.359-136.557 78.755-184.967 0.181-0.181 0.181-0.361 0.361-0.542 1.445-1.445 3.071-2.709 4.516-3.974 4.155-3.613 8.309-7.406 12.644-11.019 2.348-1.806 4.696-3.613 7.045-5.419 4.155-3.071 8.128-6.141 12.464-8.851 2.89-1.806 5.961-3.613 8.851-5.419 3.974-2.348 7.948-4.696 11.922-6.864 3.432-1.806 7.045-3.432 10.477-5.058 3.793-1.806 7.587-3.613 11.56-5.238s7.948-2.89 11.922-4.335c3.974-1.445 7.406-2.709 11.199-3.974 4.335-1.264 8.67-2.348 13.186-3.432 3.613-0.903 7.225-1.987 11.019-2.709 5.058-1.084 10.115-1.626 15.354-2.348 3.251-0.361 6.322-1.084 9.393-1.445 8.309-0.903 16.799-1.264 25.288-1.264s16.979 0.542 25.288 1.264c3.251 0.361 6.322 0.903 9.393 1.445 5.058 0.723 10.296 1.264 15.354 2.348 3.613 0.723 7.225 1.806 11.019 2.709 4.335 1.084 8.851 2.168 13.186 3.432 3.793 1.084 7.587 2.529 11.199 3.974 3.793 1.264 7.948 2.709 11.922 4.335s7.767 3.432 11.56 5.238c3.432 1.626 7.045 3.251 10.477 5.058 4.155 2.168 7.948 4.516 11.922 6.864 2.89 1.806 5.961 3.432 8.851 5.419 4.335 2.89 8.309 5.78 12.464 8.851 2.348 1.806 4.877 3.432 7.045 5.419 4.335 3.432 8.49 7.225 12.644 11.019 1.445 1.445 3.071 2.529 4.516 3.974 0.181 0.181 0.181 0.361 0.361 0.542 101.876 97.541 105.308 259.387 7.767 361.444zM655.873 282.993c-3.251-2.89-6.683-5.78-10.296-8.309-1.987-1.626-4.155-3.071-6.141-4.696-3.251-2.348-6.683-4.696-10.115-6.864-2.529-1.626-5.058-3.071-7.587-4.696-3.251-1.806-6.503-3.613-9.754-5.419-2.89-1.445-5.961-2.89-8.851-4.335-3.071-1.445-6.322-2.89-9.573-4.155s-6.683-2.529-10.115-3.613c-3.071-1.084-6.141-2.168-9.393-3.071-3.613-1.084-7.406-1.987-11.199-2.89-2.89-0.723-5.961-1.445-8.851-1.987-4.335-0.903-8.67-1.445-13.186-1.987-2.529-0.361-5.058-0.723-7.587-1.084-7.045-0.723-14.089-1.084-21.315-1.084s-14.27 0.361-21.315 1.084c-2.529 0.181-5.058 0.723-7.587 1.084-4.516 0.542-8.851 1.264-13.186 1.987-3.071 0.542-5.961 1.445-8.851 1.987-3.793 0.903-7.587 1.806-11.199 2.89-3.071 0.903-6.141 1.987-9.393 3.071-3.432 1.084-6.683 2.348-10.115 3.613-3.251 1.264-6.322 2.709-9.573 4.155-3.071 1.445-5.961 2.709-8.851 4.335-3.251 1.806-6.503 3.613-9.754 5.419-2.529 1.445-5.058 3.071-7.587 4.696-3.432 2.168-6.864 4.516-10.115 6.864-2.168 1.445-4.155 3.071-6.141 4.696-3.432 2.709-6.864 5.419-10.296 8.309-0.723 0.542-1.626 1.445-2.348 1.987 0.903 62.137 40.823 117.049 99.709 137.099 29.443-14.089 63.582-14.089 93.206 0 58.886-19.869 98.805-74.781 99.709-137.099-0.723-0.723-1.445-1.445-2.348-1.987zM448.147 557.372c19.869 35.223 64.305 47.687 99.528 27.817s47.687-64.305 27.817-99.528c-6.503-11.741-16.257-21.315-27.817-27.817-0.181 0-0.181 0-0.361-0.181-4.877-2.709-9.935-4.877-15.354-6.503-0.903-0.361-1.806-0.723-2.89-0.903-1.806-0.542-3.793-0.723-5.6-1.084-3.613-0.542-7.045-0.903-10.657-1.084h-2.168c-3.613 0.181-7.225 0.542-10.657 1.084-1.806 0.361-3.793 0.723-5.6 1.084-0.903 0.181-1.806 0.542-2.89 0.903-5.238 1.626-10.477 3.793-15.354 6.503l-0.361 0.181c-34.862 19.689-47.325 64.305-27.637 99.528zM690.554 321.287v0c-11.741 54.731-47.687 101.154-97.902 126.081 41.003 44.616 37.933 113.978-6.683 154.982s-113.978 37.933-154.982-6.683c-38.475-41.907-38.475-106.392 0-148.298-50.035-24.927-86.161-71.349-97.902-126.081-70.085 98.805-46.964 235.543 51.841 305.809s235.543 46.964 305.809-51.841c26.372-37.029 40.461-81.465 40.461-126.984 0.181-45.7-14.089-90.135-40.642-126.984z" />
<glyph unicode="&#xe91a;" glyph-name="pickup" d="M733.003 404.919l-17.521-4.696-35.584 132.584c-2.348 8.49-11.019 13.547-19.508 11.199l-33.959-9.032-31.249 116.146c-2.348 8.49-11.019 13.547-19.508 11.199l-131.5-35.404c-8.49-2.348-13.547-11.019-11.199-19.508l70.988-264.083-2.348-0.723c-16.076 12.283-36.307 18.786-57.080 17.16l-89.232 332.362c-1.806 7.045-8.309 11.922-15.534 11.741l-70.446-0.181c-8.851 0-15.896-7.225-15.896-16.076s7.225-15.896 16.076-15.896l58.163 0.181 86.161-320.44c-35.404-17.341-54.912-57.802-44.435-97.36 12.102-44.797 58.163-71.349 102.96-59.428 27.095 7.225 47.506 27.095 56.899 51.661l156.969 42.268 4.696-17.521c2.348-8.49 11.019-13.547 19.508-11.199s13.547 11.019 11.199 19.508l-4.696 17.521 42.087 11.38c8.49 2.348 13.547 11.019 11.199 19.508l-17.702 65.75c-2.168 8.49-11.019 13.547-19.508 11.38v0zM467.836 600.182l34.862 9.393 4.696-17.521c2.348-8.49 11.019-13.547 19.508-11.199s13.547 11.019 11.199 19.508l-4.696 17.521 34.862 9.393 27.095-100.612-100.612-27.095-26.914 100.612zM503.239 468.682l59.608 16.076 4.696-17.521c2.348-8.49 11.019-13.547 19.508-11.199s13.547 11.019 11.199 19.508l-4.696 17.521 59.608 16.076 31.43-117.049-149.924-40.281-31.43 116.869zM463.862 225.733c-27.817-7.406-56.357 9.032-63.944 36.849s9.032 56.357 36.849 63.944c27.817 7.406 56.357-9.032 63.944-36.849 7.406-27.817-9.032-56.538-36.849-63.944zM735.17 335.015l-201.043-54.009c-0.723 12.102-3.974 23.843-9.935 34.862l201.404 54.189 9.573-35.043zM464.404 284.077c-4.335 8.49-14.812 11.38-22.76 6.503-8.128-5.238-9.393-14.992-5.058-22.037 5.238-8.128 14.992-9.393 22.037-5.058 7.225 4.877 9.212 13.547 5.78 20.592v0z" />
<glyph unicode="&#xe91b;" glyph-name="supplier" d="M670.865 504.086c24.927 20.773 41.003 52.022 41.003 86.884 0 62.318-50.577 112.895-112.895 112.895s-112.895-50.577-112.895-112.895c0-8.128 0.903-16.076 2.529-23.663-6.503 1.084-13.005 1.806-19.869 1.806-62.318 0-112.895-50.577-112.895-112.895 0-34.862 15.896-66.292 41.003-86.884-69.904-28.54-119.397-97.18-119.397-177.2h40.1c0 83.452 67.917 151.189 151.189 151.189 62.318 0 112.895 50.577 112.895 112.895 0 8.128-0.903 16.076-2.529 23.663 6.503-1.084 13.005-1.806 19.869-1.806 49.132 0 92.845-23.663 120.481-59.97l27.095 30.165c-20.050 24.385-45.88 43.713-75.685 55.815zM468.739 383.244c-40.1 0-72.794 32.694-72.794 72.794s32.694 72.794 72.794 72.794 72.794-32.694 72.794-72.794-32.694-72.794-72.794-72.794zM598.974 518.175c-40.1 0-72.794 32.694-72.794 72.794s32.694 72.794 72.794 72.794 72.794-32.694 72.794-72.794c0-40.1-32.694-72.794-72.794-72.794z" />
<glyph unicode="&#xe91c;" glyph-name="current-reservations" d="M342.116 131.263h374.991v452.121h-29.985v59.97h-345.006c-24.747 0-44.977-20.231-44.977-44.977v-421.955c0-24.927 20.231-45.158 44.977-45.158zM327.124 176.24v379.687c4.696-1.626 9.754-2.529 14.992-2.529h14.992v-391.97h-14.992c-8.309-0.181-14.992 6.683-14.992 14.812zM687.122 161.247h-300.029v391.97h149.924v-163.11l59.97 39.92 59.97-39.92v163.11h29.985v-391.97zM567.183 553.398h59.97v-106.934l-29.985 20.050-29.985-20.050v106.934zM342.116 613.368h315.021v-29.985c-18.063 0-302.558 0-315.021 0-8.309 0-14.992 6.683-14.992 14.992s6.683 14.992 14.992 14.992z" />
<glyph unicode="&#xe91d;" glyph-name="old-reservations" d="M679.174 331.402c-43.532 0-78.936-35.404-78.936-78.936s35.404-78.936 78.936-78.936c43.532 0 78.936 35.404 78.936 78.936s-35.404 78.936-78.936 78.936zM679.174 199.541c-29.082 0-52.925 23.663-52.925 52.925 0 29.082 23.663 52.925 52.925 52.925s52.925-23.663 52.925-52.925c0-29.262-23.663-52.925-52.925-52.925zM698.141 265.472h-5.961v13.728c0 7.225-5.78 13.005-13.005 13.005s-13.005-5.78-13.005-13.005v-26.733c0-7.225 5.78-13.005 13.005-13.005h18.966c7.225 0 13.005 5.78 13.005 13.005s-5.78 13.005-13.005 13.005zM580.369 243.796h-169.613v359.095h137.461v-149.382l54.912 36.668 54.912-36.668v149.382h27.456v-251.62c9.573-0.542 18.786-2.529 27.456-5.78v284.856h-27.456v55.093h-316.105c-22.76 0-41.184-18.424-41.184-41.184v-386.551c0-22.76 18.424-41.184 41.184-41.184h217.119c-3.071 8.49-5.238 17.702-6.141 27.275zM630.765 504.989l-27.456 18.244-27.456-18.244v98.083h54.912v-98.083zM369.572 657.984h288.649v-27.456c-16.437 0-277.269 0-288.649 0-7.587 0-13.728 6.141-13.728 13.728s6.141 13.728 13.728 13.728zM383.3 243.796h-13.728c-7.587 0-13.728 6.141-13.728 13.728v347.716c4.335-1.445 8.851-2.348 13.728-2.348h13.728v-359.095z" />
<glyph unicode="&#xe91e;" glyph-name="logout" d="M760.278 466.695l-99.889 99.889c-10.296 10.296-27.095 10.296-37.391 0 0 0 0 0 0 0-10.296-10.296-10.296-27.095 0-37.391l54.731-54.731h-289.372c-14.631 0-26.553-11.922-26.553-26.553s11.922-26.553 26.553-26.553h289.191l-54.731-54.731c-10.296-10.296-10.296-27.095 0-37.391s27.095-10.296 37.391 0l99.889 99.889c10.477 10.477 10.477 27.275 0.181 37.571v0zM565.015 297.986c-14.631 0-26.553-11.922-26.553-26.553v-26.553h-229.402v406.060h229.583v-26.553c0-14.631 11.922-26.553 26.553-26.553s26.553 11.922 26.553 26.553v35.223c0 24.385-19.689 44.074-44.074 44.074h-247.465c-24.385 0-44.074-19.689-44.074-44.074v-423.762c0-24.385 19.689-44.074 44.074-44.074h247.104c24.385 0 44.074 19.689 44.074 44.074v35.223c0.181 14.992-11.741 26.914-26.372 26.914z" />
<glyph unicode="&#xe91f;" glyph-name="shipment" d="M386.913 335.015l-63.944 27.275c-8.128 3.432-17.521-0.361-20.953-8.49s0.361-17.521 8.49-20.953l63.944-27.275c1.987-0.903 4.155-1.264 6.322-1.264 6.141 0 12.102 3.613 14.631 9.754 3.432 8.128-0.361 17.521-8.49 20.953zM386.913 378.547l-63.944 27.275c-8.128 3.432-17.521-0.361-20.953-8.49s0.361-17.521 8.49-20.953l63.944-27.275c1.987-0.903 4.155-1.264 6.322-1.264 6.141 0 12.102 3.613 14.631 9.754 3.432 8.128-0.361 17.521-8.49 20.953zM386.913 426.415l-63.944 27.275c-8.128 3.432-17.521-0.361-20.953-8.49s0.361-17.521 8.49-20.953l63.944-27.275c1.987-0.903 4.155-1.264 6.322-1.264 6.141 0 12.102 3.613 14.631 9.754 3.432 8.128-0.361 17.521-8.49 20.953zM386.913 480.604l-63.944 27.275c-8.128 3.432-17.521-0.361-20.953-8.49s0.361-17.521 8.49-20.953l63.944-27.275c1.987-0.903 4.155-1.264 6.322-1.264 6.141 0 12.102 3.613 14.631 9.754 3.432 8.128-0.361 17.521-8.49 20.953zM767.865 592.776c-0.181 1.626-0.181 3.251-0.723 4.877-0.361 0.903-0.903 1.626-1.445 2.348-0.361 0.542-0.542 1.084-0.903 1.626-1.806 2.348-3.974 4.155-6.683 5.238-0.181 0-0.181 0.181-0.181 0.181l-255.955 95.915c-3.793 1.445-8.128 1.445-11.922-0.181l-223.983-95.915c-0.181-0.181-0.361-0.361-0.542-0.361-2.168-1.084-4.155-2.709-5.6-4.696-0.361-0.542-0.903-1.084-1.264-1.806-0.361-0.542-0.723-0.903-1.084-1.626-0.903-1.987-1.264-4.155-1.264-6.322v0-288.107c0-6.322 3.793-12.283 9.754-14.631l223.983-96.096c1.987-0.903 4.155-1.264 6.322-1.264 1.987 0 3.793 0.361 5.6 1.084l0.542 0.181c0 0 0 0 0 0l255.413 95.735c6.322 2.348 10.296 8.309 10.296 14.992v288.107c-0.181 0.181-0.361 0.361-0.361 0.723zM479.938 232.236l-192.011 82.368v253.065l192.011-82.368v-253.065zM496.375 513.298l-183.702 78.755 183.702 78.755 210.074-78.755-50.035-18.786-89.774 40.281c-4.516 1.987-9.754 1.806-14.089-0.542l-62.679-26.733c-5.961-2.529-9.754-8.309-9.754-14.812s3.974-12.283 9.935-14.812l58.163-24.024-51.841-19.328zM608.006 520.885l31.972 11.922v-78.033l-31.972-11.922v78.033zM592.11 549.063l-54.731 22.579 22.579 9.754 53.828-24.024-21.676-8.309zM736.073 315.146l-223.983-83.994v253.787l63.944 24.024v-89.051c0-5.238 2.529-10.115 6.864-13.186 2.709-1.806 5.961-2.89 9.032-2.89 1.806 0 3.793 0.361 5.6 1.084l63.944 24.024c6.322 2.348 10.296 8.309 10.296 14.992v101.154l63.944 24.024v-253.968z" />
<glyph unicode="&#xe920;" glyph-name="support" d="M338.684 447.007h35.223c10.115-28.54 28.901-52.925 53.286-70.085-44.074-10.296-83.452-33.959-112.533-68.459l-0.542-0.723c-29.262-34.681-46.061-73.698-49.674-115.785h32.333c3.613 34.501 17.521 66.292 41.907 95.193l0.542 0.723c33.778 39.92 84.355 62.86 138.725 62.86h67.917c54.37 0 104.947-22.94 138.725-62.86l0.542-0.723c24.205-28.72 38.294-60.692 41.907-95.193h32.333c-3.613 42.268-20.231 81.104-49.674 115.785l-0.542 0.723c-29.804 35.404-70.627 59.428-116.146 69.182 23.843 16.979 42.268 41.184 52.203 69.182h36.488c20.411 0 37.21 16.618 37.21 37.21v11.019c0 115.062-93.567 208.81-208.81 208.81s-208.81-93.567-208.81-208.81v-11.019c0.181-20.411 16.979-37.029 37.391-37.029zM509.561 383.063c-44.435 0-83.090 26.192-100.973 63.944h80.2v32.152h-89.954c-0.723 5.058-1.084 10.296-1.084 15.715 0 61.595 50.216 111.811 111.811 111.811s111.811-50.216 111.811-111.811-50.035-111.811-111.811-111.811zM686.942 495.235v-11.019c0-2.709-2.348-5.058-5.058-5.058h-29.262c0.542 5.238 0.903 10.477 0.903 15.715 0 5.6-0.361 11.019-0.903 16.437h33.597c0.542-5.238 0.723-10.657 0.723-16.076zM510.284 671.893c80.742 0 149.021-54.37 169.974-128.429h-35.223c-19.869 55.454-73.156 95.373-135.474 95.373s-115.424-39.739-135.474-95.373h-33.959c21.134 74.059 89.413 128.429 170.155 128.429zM333.626 495.235c0 5.419 0.181 10.838 0.723 16.076h32.333c-0.542-5.419-0.903-10.838-0.903-16.437 0-5.238 0.361-10.477 0.903-15.715h-27.998c-2.709 0-5.058 2.348-5.058 5.058v11.019z" />
<glyph unicode="&#xe921;" glyph-name="status" d="M406.963 613.007h-29.985v31.069h-29.985v-61.053h59.97v29.985zM552.552 277.574l-25.65 25.65v39.739h-29.985v-52.203l34.32-34.32 21.315 21.134zM647.022 604.156l-25.65-25.65 21.134-21.134 34.32 34.32v52.203h-29.985v-39.739zM330.556 498.125l31.43-47.145 31.43 47.145c43.532 13.728 73.517 54.009 73.517 99.889 0 58.525-47.145 106.031-104.947 106.031-57.983 0-106.031-47.867-106.031-106.031 0-47.325 32.152-86.522 74.601-99.889v0zM361.986 674.060c41.365 0 74.962-34.139 74.962-76.046 0-60.873-62.137-73.698-62.318-73.878l-12.825-19.147-12.825 19.147c-0.181 0.181-63.221 11.199-63.221 73.878 0.181 41.184 35.043 76.046 76.226 76.046zM662.014 704.045c-57.983 0-104.947-47.506-104.947-106.031 0-45.88 29.985-86.161 73.517-99.889l31.43-47.145 31.43 47.145c42.268 13.367 74.601 52.383 74.601 99.889 0 57.983-47.867 106.031-106.031 106.031zM674.839 524.136l-12.825-19.147-12.825 19.147c-0.181 0.181-62.318 11.019-62.318 73.878 0 41.907 33.597 76.046 74.962 76.046 41.184 0 76.046-34.862 76.046-76.046 0.181-60.692-63.040-73.698-63.040-73.878v0zM406.963 297.082c0-57.983 47.145-104.947 104.947-104.947s104.947 47.145 104.947 104.947c0 46.061-30.165 87.064-73.517 100.792l-31.43 47.145-31.43-47.145c-43.352-13.728-73.517-54.731-73.517-100.792v0zM499.265 371.864l12.825 19.147 12.825-19.147c0.181 0 62.318-12.102 62.318-74.781 0-41.365-33.597-74.962-74.962-74.962s-74.962 33.597-74.962 74.962c-0.361 63.221 61.776 74.601 61.957 74.781zM255.955 463.083h76.046v-29.985h-76.046v29.985zM391.97 463.083h89.954v-29.985h-89.954v29.985zM542.075 463.083h89.954v-29.985h-89.954v29.985zM691.999 463.083h76.046v-29.985h-76.046v29.985z" />
<glyph unicode="&#xe922;" glyph-name="summary" d="M507.394 507.337c-6.322 6.322-16.437 6.322-22.579 0l-52.744-52.744-20.592 20.773c-6.322 6.322-16.437 6.322-22.579 0-6.322-6.322-6.322-16.437 0-22.579l31.972-31.972c3.071-3.071 7.225-4.696 11.38-4.696s8.128 1.626 11.38 4.696l63.944 63.944c5.961 6.141 5.961 16.257-0.181 22.579zM507.394 379.27c-6.322 6.322-16.437 6.322-22.579 0l-52.744-52.744-20.592 20.592c-6.322 6.322-16.437 6.322-22.579 0-6.322-6.322-6.322-16.437 0-22.579l31.972-31.972c3.071-3.071 7.225-4.696 11.38-4.696s8.128 1.626 11.38 4.696l63.944 63.944c5.961 6.322 5.961 16.618-0.181 22.76zM624.082 480.062h-64.124c-8.851 0-16.076-7.225-16.076-16.076s7.225-16.076 16.076-16.076h63.944c8.851 0 16.076 7.225 16.076 16.076s-7.225 16.076-15.896 16.076zM624.082 351.994h-64.124c-8.851 0-16.076-7.225-16.076-16.076s7.225-16.076 16.076-16.076h63.944c8.851 0 16.076 7.225 16.076 16.076s-7.225 16.076-15.896 16.076zM671.949 639.921h-63.944v16.076c0 8.851-7.225 16.076-16.076 16.076h-34.681c-6.683 18.605-24.385 31.972-45.339 31.972s-38.655-13.367-45.339-31.972h-34.681c-8.851 0-16.076-7.225-16.076-16.076v-16.076h-63.944c-17.702 0-31.972-14.451-31.972-31.972v-384.023c0-17.702 14.451-31.972 31.972-31.972h320.079c17.702 0 31.972 14.451 31.972 31.972v384.023c0 17.702-14.27 31.972-31.972 31.972zM447.966 639.921h31.972c8.851 0 16.076 7.225 16.076 16.076s7.225 16.076 16.076 16.076 16.076-7.225 16.076-16.076c0-8.851 7.225-16.076 16.076-16.076h31.972v-31.972h-128.248v31.972zM671.949 223.927h-319.898v384.023h63.944v-16.076c0-8.851 7.225-16.076 16.076-16.076h160.040c8.851 0 16.076 7.225 16.076 16.076v16.076h63.944v-384.023z" />
<glyph unicode="&#xe923;" glyph-name="user" d="M693.083 372.948c-27.817 27.817-61.053 48.59-97.36 61.053 38.836 26.733 64.305 71.349 64.305 121.926 0 81.645-66.472 147.937-147.937 147.937s-147.937-66.472-147.937-147.937c0-50.577 25.469-95.193 64.305-121.926-36.126-12.464-69.362-33.056-97.36-61.053-48.409-48.409-74.962-112.714-74.962-180.993h39.92c0 119.036 96.818 216.035 216.035 216.035s216.035-96.818 216.035-216.035h39.92c0 68.459-26.553 132.764-74.962 180.993zM512.090 447.91c-59.608 0-108.018 48.409-108.018 108.018s48.409 108.018 108.018 108.018 108.018-48.409 108.018-108.018-48.59-108.018-108.018-108.018z" />
<glyph unicode="&#xe924;" glyph-name="volumen" d="M763.168 236.029l-56.176 309.422c-3.251 17.702-18.605 30.707-36.668 30.707h-106.031c13.909 13.547 22.398 32.514 22.398 53.286 0 41.184-33.417 74.601-74.601 74.601s-74.601-33.417-74.601-74.601c0-20.953 8.67-39.739 22.398-53.286h-106.031c-18.063 0-33.417-12.825-36.668-30.707l-56.176-309.422c-1.987-10.838 0.903-22.037 8.128-30.527 7.045-8.49 17.521-13.367 28.72-13.367h428.819c11.019 0 21.495 4.877 28.72 13.367 6.864 8.49 9.754 19.508 7.767 30.527zM512.090 672.073c23.482 0 42.629-19.147 42.629-42.629s-19.147-42.629-42.629-42.629c-23.482 0-42.629 19.147-42.629 42.629-0.181 23.482 18.966 42.629 42.629 42.629zM730.474 225.914c-0.542-0.723-1.987-1.987-4.155-1.987h-428.819c-2.168 0-3.432 1.264-4.155 1.987s-1.626 2.168-1.084 4.335l56.176 309.422c0.542 2.529 2.709 4.335 5.238 4.335h316.466c2.529 0 4.696-1.806 5.238-4.335l56.176-309.422c0.542-2.168-0.361-3.613-1.084-4.335z" />
</font>
</defs>
</svg>
